<mxfile host="Electron" modified="2024-05-19T15:05:55.524Z" agent="Mozilla/5.0 (Windows NT 10.0; Win64; x64) AppleWebKit/537.36 (KHTML, like Gecko) draw.io/24.2.5 Chrome/120.0.6099.109 Electron/28.1.0 Safari/537.36" etag="V-cCXaRUi4ui1NWNBH3c" version="24.2.5" type="device">
  <diagram name="Page-1" id="e7e014a7-5840-1c2e-5031-d8a46d1fe8dd">
    <mxGraphModel dx="2074" dy="1244" grid="1" gridSize="10" guides="1" tooltips="1" connect="1" arrows="1" fold="1" page="1" pageScale="1" pageWidth="1169" pageHeight="826" background="none" math="0" shadow="0">
      <root>
        <mxCell id="0" />
        <mxCell id="1" parent="0" />
        <mxCell id="2" value="Quản trị viên" style="swimlane;whiteSpace=wrap" parent="1" vertex="1">
          <mxGeometry x="164.5" y="130" width="275.5" height="660" as="geometry" />
        </mxCell>
        <mxCell id="5" value="" style="ellipse;shape=startState;fillColor=#000000;strokeColor=#ff0000;" parent="2" vertex="1">
          <mxGeometry x="100" y="40" width="30" height="30" as="geometry" />
        </mxCell>
        <mxCell id="6" value="" style="edgeStyle=elbowEdgeStyle;elbow=horizontal;verticalAlign=bottom;endArrow=open;endSize=8;strokeColor=#FF0000;endFill=1;rounded=0" parent="2" source="5" edge="1">
          <mxGeometry x="100" y="40" as="geometry">
            <mxPoint x="115" y="110" as="targetPoint" />
          </mxGeometry>
        </mxCell>
        <mxCell id="9" value="" style="endArrow=open;strokeColor=#FF0000;endFill=1;rounded=0" parent="2" edge="1">
          <mxGeometry relative="1" as="geometry">
            <mxPoint x="115" y="160" as="sourcePoint" />
            <mxPoint x="115" y="220" as="targetPoint" />
          </mxGeometry>
        </mxCell>
        <mxCell id="1qnnJnAigtBVp87FX5BY-41" value="Truy cập hệ thống" style="rounded=1;whiteSpace=wrap;html=1;arcSize=40;fontColor=#000000;fillColor=#ffffc0;strokeColor=#ff0000;" parent="2" vertex="1">
          <mxGeometry x="55" y="112" width="120" height="40" as="geometry" />
        </mxCell>
        <mxCell id="1qnnJnAigtBVp87FX5BY-43" value="Chọn &quot;đăng nhập&quot;" style="rounded=1;whiteSpace=wrap;html=1;arcSize=40;fontColor=#000000;fillColor=#ffffc0;strokeColor=#ff0000;" parent="2" vertex="1">
          <mxGeometry x="60" y="222" width="120" height="40" as="geometry" />
        </mxCell>
        <mxCell id="1qnnJnAigtBVp87FX5BY-115" value="Nhập thông tin đăng ký" style="rounded=1;whiteSpace=wrap;html=1;arcSize=40;fontColor=#000000;fillColor=#ffffc0;strokeColor=#ff0000;" parent="2" vertex="1">
          <mxGeometry x="65.5" y="302" width="120" height="40" as="geometry" />
        </mxCell>
        <mxCell id="1qnnJnAigtBVp87FX5BY-116" value="" style="edgeStyle=orthogonalEdgeStyle;html=1;verticalAlign=bottom;endArrow=open;endSize=8;strokeColor=#ff0000;rounded=0;entryX=0.067;entryY=0.65;entryDx=0;entryDy=0;entryPerimeter=0;" parent="2" target="q1jhY8t0Y62SEOMEheAa-9" edge="1">
          <mxGeometry relative="1" as="geometry">
            <mxPoint x="340.5" y="370" as="targetPoint" />
            <mxPoint x="125.5" y="382" as="sourcePoint" />
          </mxGeometry>
        </mxCell>
        <mxCell id="3" value="Hệ thống" style="swimlane;whiteSpace=wrap" parent="1" vertex="1">
          <mxGeometry x="440" y="130" width="310" height="662" as="geometry" />
        </mxCell>
        <mxCell id="1qnnJnAigtBVp87FX5BY-113" value="Hiển thị form đăng nhập" style="rounded=1;whiteSpace=wrap;html=1;arcSize=40;fontColor=#000000;fillColor=#ffffc0;strokeColor=#ff0000;" parent="3" vertex="1">
          <mxGeometry x="50" y="222" width="120" height="40" as="geometry" />
        </mxCell>
        <mxCell id="1qnnJnAigtBVp87FX5BY-125" value="Đi đến form đăng nhập" style="rounded=1;whiteSpace=wrap;html=1;arcSize=40;fontColor=#000000;fillColor=#ffffc0;strokeColor=#ff0000;" parent="3" vertex="1">
          <mxGeometry x="50" y="460" width="120" height="40" as="geometry" />
        </mxCell>
        <mxCell id="1qnnJnAigtBVp87FX5BY-126" value="" style="edgeStyle=orthogonalEdgeStyle;html=1;verticalAlign=bottom;endArrow=open;endSize=8;strokeColor=#ff0000;rounded=0;" parent="3" source="1qnnJnAigtBVp87FX5BY-125" edge="1">
          <mxGeometry relative="1" as="geometry">
            <mxPoint x="110" y="552" as="targetPoint" />
          </mxGeometry>
        </mxCell>
        <mxCell id="1qnnJnAigtBVp87FX5BY-129" value="" style="ellipse;html=1;shape=endState;fillColor=#000000;strokeColor=#ff0000;" parent="3" vertex="1">
          <mxGeometry x="95" y="552" width="30" height="30" as="geometry" />
        </mxCell>
        <mxCell id="1qnnJnAigtBVp87FX5BY-132" value="&amp;nbsp;Hợp lệ" style="text;html=1;align=center;verticalAlign=middle;whiteSpace=wrap;rounded=0;fontColor=#FF0000;" parent="3" vertex="1">
          <mxGeometry x="110" y="362" width="60" height="30" as="geometry" />
        </mxCell>
        <mxCell id="q1jhY8t0Y62SEOMEheAa-9" value="Điều kiện" style="rhombus;whiteSpace=wrap;html=1;fontColor=#000000;fillColor=#ffffc0;strokeColor=#ff0000;" vertex="1" parent="3">
          <mxGeometry x="70" y="322" width="80" height="40" as="geometry" />
        </mxCell>
        <mxCell id="q1jhY8t0Y62SEOMEheAa-11" value="&lt;div&gt;&lt;br&gt;&lt;/div&gt;&lt;div&gt;&lt;br&gt;&lt;/div&gt;" style="edgeStyle=orthogonalEdgeStyle;html=1;align=left;verticalAlign=top;endArrow=open;endSize=8;strokeColor=#ff0000;rounded=0;" edge="1" source="q1jhY8t0Y62SEOMEheAa-9" parent="3" target="1qnnJnAigtBVp87FX5BY-125">
          <mxGeometry x="-1" y="14" relative="1" as="geometry">
            <mxPoint x="120" y="422" as="targetPoint" />
            <mxPoint x="-4" y="-10" as="offset" />
          </mxGeometry>
        </mxCell>
        <mxCell id="1qnnJnAigtBVp87FX5BY-44" value="" style="edgeStyle=orthogonalEdgeStyle;html=1;verticalAlign=bottom;endArrow=open;endSize=8;strokeColor=#ff0000;rounded=0;" parent="1" source="1qnnJnAigtBVp87FX5BY-43" target="1qnnJnAigtBVp87FX5BY-113" edge="1">
          <mxGeometry relative="1" as="geometry">
            <mxPoint x="280" y="460" as="targetPoint" />
          </mxGeometry>
        </mxCell>
        <mxCell id="1qnnJnAigtBVp87FX5BY-119" value="" style="endArrow=none;html=1;rounded=0;entryX=0.5;entryY=1;entryDx=0;entryDy=0;fontColor=#FF0000;strokeColor=#FF0000;" parent="1" target="1qnnJnAigtBVp87FX5BY-113" edge="1">
          <mxGeometry width="50" height="50" relative="1" as="geometry">
            <mxPoint x="550" y="450" as="sourcePoint" />
            <mxPoint x="660" y="390" as="targetPoint" />
          </mxGeometry>
        </mxCell>
        <mxCell id="1qnnJnAigtBVp87FX5BY-120" value="" style="endArrow=classic;html=1;rounded=0;strokeColor=#FF0000;" parent="1" target="1qnnJnAigtBVp87FX5BY-115" edge="1">
          <mxGeometry width="50" height="50" relative="1" as="geometry">
            <mxPoint x="550" y="450" as="sourcePoint" />
            <mxPoint x="510" y="440" as="targetPoint" />
          </mxGeometry>
        </mxCell>
        <mxCell id="1qnnJnAigtBVp87FX5BY-124" value="" style="endArrow=none;html=1;rounded=0;entryX=0.5;entryY=1;entryDx=0;entryDy=0;strokeColor=#FF0000;" parent="1" target="1qnnJnAigtBVp87FX5BY-115" edge="1">
          <mxGeometry width="50" height="50" relative="1" as="geometry">
            <mxPoint x="290" y="510" as="sourcePoint" />
            <mxPoint x="450" y="390" as="targetPoint" />
          </mxGeometry>
        </mxCell>
        <mxCell id="1qnnJnAigtBVp87FX5BY-154" value="Quản trị viên" style="swimlane;whiteSpace=wrap" parent="1" vertex="1">
          <mxGeometry x="890" y="129" width="275.5" height="660" as="geometry" />
        </mxCell>
        <mxCell id="1qnnJnAigtBVp87FX5BY-155" value="" style="ellipse;shape=startState;fillColor=#000000;strokeColor=#ff0000;" parent="1qnnJnAigtBVp87FX5BY-154" vertex="1">
          <mxGeometry x="100" y="40" width="30" height="30" as="geometry" />
        </mxCell>
        <mxCell id="1qnnJnAigtBVp87FX5BY-156" value="" style="edgeStyle=elbowEdgeStyle;elbow=horizontal;verticalAlign=bottom;endArrow=open;endSize=8;strokeColor=#FF0000;endFill=1;rounded=0" parent="1qnnJnAigtBVp87FX5BY-154" source="1qnnJnAigtBVp87FX5BY-155" edge="1">
          <mxGeometry x="100" y="40" as="geometry">
            <mxPoint x="115" y="110" as="targetPoint" />
          </mxGeometry>
        </mxCell>
        <mxCell id="1qnnJnAigtBVp87FX5BY-157" value="" style="endArrow=open;strokeColor=#FF0000;endFill=1;rounded=0" parent="1qnnJnAigtBVp87FX5BY-154" edge="1">
          <mxGeometry relative="1" as="geometry">
            <mxPoint x="115" y="160" as="sourcePoint" />
            <mxPoint x="115" y="220" as="targetPoint" />
          </mxGeometry>
        </mxCell>
        <mxCell id="1qnnJnAigtBVp87FX5BY-158" value="Chọn giỏ hàng" style="rounded=1;whiteSpace=wrap;html=1;arcSize=40;fontColor=#000000;fillColor=#ffffc0;strokeColor=#ff0000;" parent="1qnnJnAigtBVp87FX5BY-154" vertex="1">
          <mxGeometry x="55" y="112" width="120" height="40" as="geometry" />
        </mxCell>
        <mxCell id="1qnnJnAigtBVp87FX5BY-159" value="Nhập thông tin và hình thức thanh toán" style="rounded=1;whiteSpace=wrap;html=1;arcSize=40;fontColor=#000000;fillColor=#ffffc0;strokeColor=#ff0000;" parent="1qnnJnAigtBVp87FX5BY-154" vertex="1">
          <mxGeometry x="60" y="222" width="120" height="40" as="geometry" />
        </mxCell>
        <mxCell id="1qnnJnAigtBVp87FX5BY-162" value="Hệ thống" style="swimlane;whiteSpace=wrap" parent="1" vertex="1">
          <mxGeometry x="1165.5" y="129" width="310" height="662" as="geometry" />
        </mxCell>
        <mxCell id="1qnnJnAigtBVp87FX5BY-163" value="Hiển thị form giỏ hàng" style="rounded=1;whiteSpace=wrap;html=1;arcSize=40;fontColor=#000000;fillColor=#ffffc0;strokeColor=#ff0000;" parent="1qnnJnAigtBVp87FX5BY-162" vertex="1">
          <mxGeometry x="50" y="111" width="120" height="40" as="geometry" />
        </mxCell>
        <mxCell id="1qnnJnAigtBVp87FX5BY-165" value="Không hợp lệ" style="text;html=1;align=center;verticalAlign=middle;whiteSpace=wrap;rounded=0;fontColor=#FF0000;" parent="1qnnJnAigtBVp87FX5BY-162" vertex="1">
          <mxGeometry x="10" y="242" width="60" height="30" as="geometry" />
        </mxCell>
        <mxCell id="1qnnJnAigtBVp87FX5BY-166" value="Trả về kết quả thanh toán" style="rounded=1;whiteSpace=wrap;html=1;arcSize=40;fontColor=#000000;fillColor=#ffffc0;strokeColor=#ff0000;" parent="1qnnJnAigtBVp87FX5BY-162" vertex="1">
          <mxGeometry x="50" y="451" width="120" height="40" as="geometry" />
        </mxCell>
        <mxCell id="1qnnJnAigtBVp87FX5BY-167" value="" style="edgeStyle=orthogonalEdgeStyle;html=1;verticalAlign=bottom;endArrow=open;endSize=8;strokeColor=#ff0000;rounded=0;" parent="1qnnJnAigtBVp87FX5BY-162" source="1qnnJnAigtBVp87FX5BY-166" edge="1">
          <mxGeometry relative="1" as="geometry">
            <mxPoint x="110" y="552" as="targetPoint" />
          </mxGeometry>
        </mxCell>
        <mxCell id="1qnnJnAigtBVp87FX5BY-168" value="" style="ellipse;html=1;shape=endState;fillColor=#000000;strokeColor=#ff0000;" parent="1qnnJnAigtBVp87FX5BY-162" vertex="1">
          <mxGeometry x="95" y="552" width="30" height="30" as="geometry" />
        </mxCell>
        <mxCell id="1qnnJnAigtBVp87FX5BY-170" value="&amp;nbsp;Hợp lệ" style="text;html=1;align=center;verticalAlign=middle;whiteSpace=wrap;rounded=0;fontColor=#FF0000;" parent="1qnnJnAigtBVp87FX5BY-162" vertex="1">
          <mxGeometry x="114.5" y="291" width="60" height="30" as="geometry" />
        </mxCell>
        <mxCell id="q1jhY8t0Y62SEOMEheAa-12" value="Điều kiện" style="rhombus;whiteSpace=wrap;html=1;fontColor=#000000;fillColor=#ffffc0;strokeColor=#ff0000;" vertex="1" parent="1qnnJnAigtBVp87FX5BY-162">
          <mxGeometry x="72.5" y="251" width="80" height="40" as="geometry" />
        </mxCell>
        <mxCell id="q1jhY8t0Y62SEOMEheAa-17" value="" style="endArrow=open;strokeColor=#FF0000;endFill=1;rounded=0;exitX=0.5;exitY=1;exitDx=0;exitDy=0;entryX=0.521;entryY=0;entryDx=0;entryDy=0;entryPerimeter=0;" edge="1" parent="1qnnJnAigtBVp87FX5BY-162" source="q1jhY8t0Y62SEOMEheAa-12" target="1qnnJnAigtBVp87FX5BY-166">
          <mxGeometry relative="1" as="geometry">
            <mxPoint x="112.21000000000004" y="331" as="sourcePoint" />
            <mxPoint x="112.21000000000004" y="391" as="targetPoint" />
          </mxGeometry>
        </mxCell>
        <mxCell id="1qnnJnAigtBVp87FX5BY-171" value="" style="edgeStyle=orthogonalEdgeStyle;html=1;verticalAlign=bottom;endArrow=open;endSize=8;strokeColor=#ff0000;rounded=0;entryX=1;entryY=0.5;entryDx=0;entryDy=0;exitX=0.5;exitY=1;exitDx=0;exitDy=0;" parent="1" source="1qnnJnAigtBVp87FX5BY-163" target="1qnnJnAigtBVp87FX5BY-159" edge="1">
          <mxGeometry relative="1" as="geometry">
            <mxPoint x="1300" y="320" as="targetPoint" />
            <mxPoint x="1100" y="370" as="sourcePoint" />
          </mxGeometry>
        </mxCell>
        <mxCell id="1qnnJnAigtBVp87FX5BY-178" value="" style="endArrow=classic;html=1;rounded=0;entryX=0;entryY=0.5;entryDx=0;entryDy=0;exitX=1;exitY=0.5;exitDx=0;exitDy=0;strokeColor=#FF0000;" parent="1" source="1qnnJnAigtBVp87FX5BY-158" target="1qnnJnAigtBVp87FX5BY-163" edge="1">
          <mxGeometry width="50" height="50" relative="1" as="geometry">
            <mxPoint x="1160" y="480" as="sourcePoint" />
            <mxPoint x="1210" y="430" as="targetPoint" />
          </mxGeometry>
        </mxCell>
        <mxCell id="1qnnJnAigtBVp87FX5BY-198" value="Quản trị viên" style="swimlane;whiteSpace=wrap" parent="1" vertex="1">
          <mxGeometry x="50" y="860" width="275.5" height="660" as="geometry" />
        </mxCell>
        <mxCell id="1qnnJnAigtBVp87FX5BY-199" value="" style="ellipse;shape=startState;fillColor=#000000;strokeColor=#ff0000;" parent="1qnnJnAigtBVp87FX5BY-198" vertex="1">
          <mxGeometry x="100" y="40" width="30" height="30" as="geometry" />
        </mxCell>
        <mxCell id="1qnnJnAigtBVp87FX5BY-200" value="" style="edgeStyle=elbowEdgeStyle;elbow=horizontal;verticalAlign=bottom;endArrow=open;endSize=8;strokeColor=#FF0000;endFill=1;rounded=0" parent="1qnnJnAigtBVp87FX5BY-198" source="1qnnJnAigtBVp87FX5BY-199" edge="1">
          <mxGeometry x="100" y="40" as="geometry">
            <mxPoint x="115" y="110" as="targetPoint" />
          </mxGeometry>
        </mxCell>
        <mxCell id="1qnnJnAigtBVp87FX5BY-201" value="" style="endArrow=open;strokeColor=#FF0000;endFill=1;rounded=0" parent="1qnnJnAigtBVp87FX5BY-198" edge="1">
          <mxGeometry relative="1" as="geometry">
            <mxPoint x="115" y="160" as="sourcePoint" />
            <mxPoint x="115" y="220" as="targetPoint" />
          </mxGeometry>
        </mxCell>
        <mxCell id="1qnnJnAigtBVp87FX5BY-202" value="Đăng nhập" style="rounded=1;whiteSpace=wrap;html=1;arcSize=40;fontColor=#000000;fillColor=#ffffc0;strokeColor=#ff0000;" parent="1qnnJnAigtBVp87FX5BY-198" vertex="1">
          <mxGeometry x="55" y="112" width="120" height="40" as="geometry" />
        </mxCell>
        <mxCell id="1qnnJnAigtBVp87FX5BY-218" value="" style="edgeStyle=orthogonalEdgeStyle;rounded=0;orthogonalLoop=1;jettySize=auto;html=1;strokeColor=#FF0000;" parent="1qnnJnAigtBVp87FX5BY-198" source="1qnnJnAigtBVp87FX5BY-203" target="1qnnJnAigtBVp87FX5BY-217" edge="1">
          <mxGeometry relative="1" as="geometry" />
        </mxCell>
        <mxCell id="1qnnJnAigtBVp87FX5BY-203" value="Chọn&quot; Quản lý&amp;nbsp; sản phẩm&quot;" style="rounded=1;whiteSpace=wrap;html=1;arcSize=40;fontColor=#000000;fillColor=#ffffc0;strokeColor=#ff0000;" parent="1qnnJnAigtBVp87FX5BY-198" vertex="1">
          <mxGeometry x="55" y="190" width="120" height="40" as="geometry" />
        </mxCell>
        <mxCell id="1qnnJnAigtBVp87FX5BY-221" value="" style="edgeStyle=orthogonalEdgeStyle;rounded=0;orthogonalLoop=1;jettySize=auto;html=1;strokeColor=#FF0000;" parent="1qnnJnAigtBVp87FX5BY-198" source="1qnnJnAigtBVp87FX5BY-217" target="1qnnJnAigtBVp87FX5BY-220" edge="1">
          <mxGeometry relative="1" as="geometry" />
        </mxCell>
        <mxCell id="1qnnJnAigtBVp87FX5BY-217" value="Chọn&quot;Thêm mới&quot;" style="rounded=1;whiteSpace=wrap;html=1;arcSize=40;fontColor=#000000;fillColor=#ffffc0;strokeColor=#ff0000;" parent="1qnnJnAigtBVp87FX5BY-198" vertex="1">
          <mxGeometry x="55" y="280" width="120" height="40" as="geometry" />
        </mxCell>
        <mxCell id="1qnnJnAigtBVp87FX5BY-210" value="" style="ellipse;html=1;shape=endState;fillColor=#000000;strokeColor=#ff0000;" parent="1qnnJnAigtBVp87FX5BY-198" vertex="1">
          <mxGeometry x="90" y="565" width="30" height="30" as="geometry" />
        </mxCell>
        <mxCell id="1qnnJnAigtBVp87FX5BY-220" value="Nhập thông tin sản phẩm" style="rounded=1;whiteSpace=wrap;html=1;arcSize=40;fontColor=#000000;fillColor=#ffffc0;strokeColor=#ff0000;" parent="1qnnJnAigtBVp87FX5BY-198" vertex="1">
          <mxGeometry x="55" y="359" width="120" height="40" as="geometry" />
        </mxCell>
        <mxCell id="1qnnJnAigtBVp87FX5BY-226" value="" style="edgeStyle=segmentEdgeStyle;endArrow=classic;html=1;curved=0;rounded=0;endSize=8;startSize=8;entryX=0;entryY=0.5;entryDx=0;entryDy=0;exitX=0.5;exitY=1;exitDx=0;exitDy=0;strokeColor=#FF0000;" parent="1qnnJnAigtBVp87FX5BY-198" source="1qnnJnAigtBVp87FX5BY-220" edge="1">
          <mxGeometry width="50" height="50" relative="1" as="geometry">
            <mxPoint x="120" y="430" as="sourcePoint" />
            <mxPoint x="365.5" y="430" as="targetPoint" />
            <Array as="points">
              <mxPoint x="120" y="399" />
              <mxPoint x="120" y="430" />
            </Array>
          </mxGeometry>
        </mxCell>
        <mxCell id="1qnnJnAigtBVp87FX5BY-227" value="&lt;div&gt;&lt;br&gt;&lt;/div&gt;&lt;div&gt;&lt;br&gt;&lt;/div&gt;" style="edgeLabel;html=1;align=center;verticalAlign=middle;resizable=0;points=[];" parent="1qnnJnAigtBVp87FX5BY-226" vertex="1" connectable="0">
          <mxGeometry x="-1" y="2" relative="1" as="geometry">
            <mxPoint x="-1" as="offset" />
          </mxGeometry>
        </mxCell>
        <mxCell id="1qnnJnAigtBVp87FX5BY-204" value="Hệ thống" style="swimlane;whiteSpace=wrap" parent="1" vertex="1">
          <mxGeometry x="325.5" y="860" width="310" height="662" as="geometry" />
        </mxCell>
        <mxCell id="1qnnJnAigtBVp87FX5BY-205" value="Hiển thị form thêm mới" style="rounded=1;whiteSpace=wrap;html=1;arcSize=40;fontColor=#000000;fillColor=#ffffc0;strokeColor=#ff0000;" parent="1qnnJnAigtBVp87FX5BY-204" vertex="1">
          <mxGeometry x="70" y="280" width="120" height="40" as="geometry" />
        </mxCell>
        <mxCell id="1qnnJnAigtBVp87FX5BY-208" value="Trả kết quả về database" style="rounded=1;whiteSpace=wrap;html=1;arcSize=40;fontColor=#000000;fillColor=#ffffc0;strokeColor=#ff0000;" parent="1qnnJnAigtBVp87FX5BY-204" vertex="1">
          <mxGeometry x="70" y="560" width="120" height="40" as="geometry" />
        </mxCell>
        <mxCell id="1qnnJnAigtBVp87FX5BY-211" value="" style="endArrow=classic;html=1;rounded=0;exitX=0.5;exitY=1;exitDx=0;exitDy=0;fontColor=#FF0000;strokeColor=#FF0000;entryX=0.5;entryY=0;entryDx=0;entryDy=0;" parent="1qnnJnAigtBVp87FX5BY-204" source="q1jhY8t0Y62SEOMEheAa-18" target="1qnnJnAigtBVp87FX5BY-222" edge="1">
          <mxGeometry width="50" height="50" relative="1" as="geometry">
            <mxPoint x="128.96000000000004" y="464.8000000000002" as="sourcePoint" />
            <mxPoint x="108.5" y="451" as="targetPoint" />
          </mxGeometry>
        </mxCell>
        <mxCell id="1qnnJnAigtBVp87FX5BY-212" value="&amp;nbsp;Hợp lệ" style="text;html=1;align=center;verticalAlign=middle;whiteSpace=wrap;rounded=0;fontColor=#FF0000;" parent="1qnnJnAigtBVp87FX5BY-204" vertex="1">
          <mxGeometry x="130" y="450" width="60" height="30" as="geometry" />
        </mxCell>
        <mxCell id="1qnnJnAigtBVp87FX5BY-222" value="Thêm sản phẩm mới vào trong Database" style="rounded=1;whiteSpace=wrap;html=1;arcSize=40;fontColor=#000000;fillColor=#ffffc0;strokeColor=#ff0000;" parent="1qnnJnAigtBVp87FX5BY-204" vertex="1">
          <mxGeometry x="70" y="490" width="120" height="40" as="geometry" />
        </mxCell>
        <mxCell id="1qnnJnAigtBVp87FX5BY-225" value="" style="endArrow=classic;html=1;rounded=0;entryX=0.5;entryY=0;entryDx=0;entryDy=0;exitX=0.5;exitY=1;exitDx=0;exitDy=0;strokeColor=#FF0000;" parent="1qnnJnAigtBVp87FX5BY-204" source="1qnnJnAigtBVp87FX5BY-222" target="1qnnJnAigtBVp87FX5BY-208" edge="1">
          <mxGeometry width="50" height="50" relative="1" as="geometry">
            <mxPoint x="-15.5" y="390" as="sourcePoint" />
            <mxPoint x="34.5" y="340" as="targetPoint" />
          </mxGeometry>
        </mxCell>
        <mxCell id="1qnnJnAigtBVp87FX5BY-207" value="Không hợp lệ" style="text;html=1;align=center;verticalAlign=middle;whiteSpace=wrap;rounded=0;fontColor=#FF0000;" parent="1qnnJnAigtBVp87FX5BY-204" vertex="1">
          <mxGeometry x="44.5" y="379" width="60" height="30" as="geometry" />
        </mxCell>
        <mxCell id="q1jhY8t0Y62SEOMEheAa-18" value="Điều kiện" style="rhombus;whiteSpace=wrap;html=1;fontColor=#000000;fillColor=#ffffc0;strokeColor=#ff0000;" vertex="1" parent="1qnnJnAigtBVp87FX5BY-204">
          <mxGeometry x="90" y="410" width="80" height="40" as="geometry" />
        </mxCell>
        <mxCell id="1qnnJnAigtBVp87FX5BY-219" value="" style="endArrow=classic;html=1;rounded=0;exitX=1;exitY=0.5;exitDx=0;exitDy=0;entryX=0;entryY=0.5;entryDx=0;entryDy=0;strokeColor=#FF0000;" parent="1" source="1qnnJnAigtBVp87FX5BY-217" target="1qnnJnAigtBVp87FX5BY-205" edge="1">
          <mxGeometry width="50" height="50" relative="1" as="geometry">
            <mxPoint x="340" y="1270" as="sourcePoint" />
            <mxPoint x="360" y="1160" as="targetPoint" />
          </mxGeometry>
        </mxCell>
        <mxCell id="1qnnJnAigtBVp87FX5BY-209" value="" style="edgeStyle=orthogonalEdgeStyle;html=1;verticalAlign=bottom;endArrow=open;endSize=8;strokeColor=#ff0000;rounded=0;entryX=1;entryY=0.5;entryDx=0;entryDy=0;exitX=0;exitY=0.5;exitDx=0;exitDy=0;" parent="1" source="1qnnJnAigtBVp87FX5BY-208" target="1qnnJnAigtBVp87FX5BY-210" edge="1">
          <mxGeometry relative="1" as="geometry">
            <mxPoint x="435.5" y="1412" as="targetPoint" />
            <mxPoint x="270" y="1410" as="sourcePoint" />
            <Array as="points">
              <mxPoint x="170" y="1440" />
            </Array>
          </mxGeometry>
        </mxCell>
        <mxCell id="1qnnJnAigtBVp87FX5BY-224" value="" style="edgeStyle=segmentEdgeStyle;endArrow=classic;html=1;curved=0;rounded=0;endSize=8;startSize=8;exitX=0.5;exitY=1;exitDx=0;exitDy=0;strokeColor=#FF0000;" parent="1" source="1qnnJnAigtBVp87FX5BY-205" edge="1">
          <mxGeometry width="50" height="50" relative="1" as="geometry">
            <mxPoint x="470" y="1240" as="sourcePoint" />
            <mxPoint x="230" y="1240" as="targetPoint" />
            <Array as="points">
              <mxPoint x="456" y="1240" />
            </Array>
          </mxGeometry>
        </mxCell>
        <mxCell id="1qnnJnAigtBVp87FX5BY-228" value="" style="edgeStyle=elbowEdgeStyle;elbow=horizontal;endArrow=classic;html=1;curved=0;rounded=0;endSize=8;startSize=8;entryX=0.938;entryY=0.892;entryDx=0;entryDy=0;entryPerimeter=0;exitX=0.431;exitY=0;exitDx=0;exitDy=0;exitPerimeter=0;strokeColor=#FF0000;" parent="1" source="q1jhY8t0Y62SEOMEheAa-18" target="1qnnJnAigtBVp87FX5BY-220" edge="1">
          <mxGeometry width="50" height="50" relative="1" as="geometry">
            <mxPoint x="428.2199999999998" y="1270.56" as="sourcePoint" />
            <mxPoint x="290" y="1310" as="targetPoint" />
          </mxGeometry>
        </mxCell>
        <mxCell id="1qnnJnAigtBVp87FX5BY-282" value="Quản trị viên" style="swimlane;whiteSpace=wrap" parent="1" vertex="1">
          <mxGeometry x="1470" y="870" width="275.5" height="660" as="geometry" />
        </mxCell>
        <mxCell id="1qnnJnAigtBVp87FX5BY-283" value="" style="ellipse;shape=startState;fillColor=#000000;strokeColor=#ff0000;" parent="1qnnJnAigtBVp87FX5BY-282" vertex="1">
          <mxGeometry x="100" y="40" width="30" height="30" as="geometry" />
        </mxCell>
        <mxCell id="1qnnJnAigtBVp87FX5BY-284" value="" style="edgeStyle=elbowEdgeStyle;elbow=horizontal;verticalAlign=bottom;endArrow=open;endSize=8;strokeColor=#FF0000;endFill=1;rounded=0" parent="1qnnJnAigtBVp87FX5BY-282" source="1qnnJnAigtBVp87FX5BY-283" edge="1">
          <mxGeometry x="100" y="40" as="geometry">
            <mxPoint x="115" y="110" as="targetPoint" />
          </mxGeometry>
        </mxCell>
        <mxCell id="1qnnJnAigtBVp87FX5BY-285" value="" style="endArrow=open;strokeColor=#FF0000;endFill=1;rounded=0" parent="1qnnJnAigtBVp87FX5BY-282" edge="1">
          <mxGeometry relative="1" as="geometry">
            <mxPoint x="115" y="160" as="sourcePoint" />
            <mxPoint x="115" y="220" as="targetPoint" />
          </mxGeometry>
        </mxCell>
        <mxCell id="1qnnJnAigtBVp87FX5BY-286" value="Đăng nhập" style="rounded=1;whiteSpace=wrap;html=1;arcSize=40;fontColor=#000000;fillColor=#ffffc0;strokeColor=#ff0000;" parent="1qnnJnAigtBVp87FX5BY-282" vertex="1">
          <mxGeometry x="55" y="112" width="120" height="40" as="geometry" />
        </mxCell>
        <mxCell id="1qnnJnAigtBVp87FX5BY-287" value="" style="edgeStyle=orthogonalEdgeStyle;rounded=0;orthogonalLoop=1;jettySize=auto;html=1;strokeColor=#FF0000;" parent="1qnnJnAigtBVp87FX5BY-282" source="1qnnJnAigtBVp87FX5BY-288" target="1qnnJnAigtBVp87FX5BY-290" edge="1">
          <mxGeometry relative="1" as="geometry" />
        </mxCell>
        <mxCell id="1qnnJnAigtBVp87FX5BY-288" value="Chọn&quot; Quản lý&amp;nbsp; sản phẩm&quot;" style="rounded=1;whiteSpace=wrap;html=1;arcSize=40;fontColor=#000000;fillColor=#ffffc0;strokeColor=#ff0000;" parent="1qnnJnAigtBVp87FX5BY-282" vertex="1">
          <mxGeometry x="55" y="190" width="120" height="40" as="geometry" />
        </mxCell>
        <mxCell id="1qnnJnAigtBVp87FX5BY-290" value="Chọn&quot;Xóa&quot;" style="rounded=1;whiteSpace=wrap;html=1;arcSize=40;fontColor=#000000;fillColor=#ffffc0;strokeColor=#ff0000;" parent="1qnnJnAigtBVp87FX5BY-282" vertex="1">
          <mxGeometry x="55" y="280" width="120" height="40" as="geometry" />
        </mxCell>
        <mxCell id="1qnnJnAigtBVp87FX5BY-291" value="" style="ellipse;html=1;shape=endState;fillColor=#000000;strokeColor=#ff0000;" parent="1qnnJnAigtBVp87FX5BY-282" vertex="1">
          <mxGeometry x="100" y="395" width="30" height="30" as="geometry" />
        </mxCell>
        <mxCell id="1qnnJnAigtBVp87FX5BY-293" value="Hệ thống" style="swimlane;whiteSpace=wrap" parent="1" vertex="1">
          <mxGeometry x="1745.5" y="870" width="310" height="662" as="geometry" />
        </mxCell>
        <mxCell id="1qnnJnAigtBVp87FX5BY-294" value="Xóa sản phẩm được chọn&amp;nbsp;" style="rounded=1;whiteSpace=wrap;html=1;arcSize=40;fontColor=#000000;fillColor=#ffffc0;strokeColor=#ff0000;" parent="1qnnJnAigtBVp87FX5BY-293" vertex="1">
          <mxGeometry x="70" y="280" width="120" height="40" as="geometry" />
        </mxCell>
        <mxCell id="1qnnJnAigtBVp87FX5BY-296" value="Trả về kết quả thanh toán" style="rounded=1;whiteSpace=wrap;html=1;arcSize=40;fontColor=#000000;fillColor=#ffffc0;strokeColor=#ff0000;" parent="1qnnJnAigtBVp87FX5BY-293" vertex="1">
          <mxGeometry x="70" y="390" width="120" height="40" as="geometry" />
        </mxCell>
        <mxCell id="1qnnJnAigtBVp87FX5BY-311" value="" style="endArrow=classic;html=1;rounded=0;exitX=0.5;exitY=1;exitDx=0;exitDy=0;entryX=0.5;entryY=0;entryDx=0;entryDy=0;strokeColor=#FF0000;" parent="1qnnJnAigtBVp87FX5BY-293" source="1qnnJnAigtBVp87FX5BY-294" target="1qnnJnAigtBVp87FX5BY-296" edge="1">
          <mxGeometry width="50" height="50" relative="1" as="geometry">
            <mxPoint x="-86" y="320" as="sourcePoint" />
            <mxPoint x="90" y="320" as="targetPoint" />
          </mxGeometry>
        </mxCell>
        <mxCell id="1qnnJnAigtBVp87FX5BY-304" value="" style="endArrow=classic;html=1;rounded=0;exitX=1;exitY=0.5;exitDx=0;exitDy=0;entryX=0;entryY=0.5;entryDx=0;entryDy=0;strokeColor=#FF0000;" parent="1" source="1qnnJnAigtBVp87FX5BY-290" target="1qnnJnAigtBVp87FX5BY-294" edge="1">
          <mxGeometry width="50" height="50" relative="1" as="geometry">
            <mxPoint x="1765.5" y="1280" as="sourcePoint" />
            <mxPoint x="1785.5" y="1170" as="targetPoint" />
          </mxGeometry>
        </mxCell>
        <mxCell id="1qnnJnAigtBVp87FX5BY-310" value="" style="endArrow=classic;html=1;rounded=0;exitX=0;exitY=0.5;exitDx=0;exitDy=0;entryX=1;entryY=0.5;entryDx=0;entryDy=0;strokeColor=#FF0000;" parent="1" source="1qnnJnAigtBVp87FX5BY-296" target="1qnnJnAigtBVp87FX5BY-291" edge="1">
          <mxGeometry width="50" height="50" relative="1" as="geometry">
            <mxPoint x="1655" y="1180" as="sourcePoint" />
            <mxPoint x="1831" y="1180" as="targetPoint" />
          </mxGeometry>
        </mxCell>
        <mxCell id="1qnnJnAigtBVp87FX5BY-312" value="Quản trị viên" style="swimlane;whiteSpace=wrap" parent="1" vertex="1">
          <mxGeometry x="1607.75" y="110" width="275.5" height="660" as="geometry" />
        </mxCell>
        <mxCell id="1qnnJnAigtBVp87FX5BY-313" value="" style="ellipse;shape=startState;fillColor=#000000;strokeColor=#ff0000;" parent="1qnnJnAigtBVp87FX5BY-312" vertex="1">
          <mxGeometry x="100" y="40" width="30" height="30" as="geometry" />
        </mxCell>
        <mxCell id="1qnnJnAigtBVp87FX5BY-314" value="" style="edgeStyle=elbowEdgeStyle;elbow=horizontal;verticalAlign=bottom;endArrow=open;endSize=8;strokeColor=#FF0000;endFill=1;rounded=0" parent="1qnnJnAigtBVp87FX5BY-312" source="1qnnJnAigtBVp87FX5BY-313" edge="1">
          <mxGeometry x="100" y="40" as="geometry">
            <mxPoint x="115" y="110" as="targetPoint" />
          </mxGeometry>
        </mxCell>
        <mxCell id="1qnnJnAigtBVp87FX5BY-315" value="" style="endArrow=open;strokeColor=#FF0000;endFill=1;rounded=0" parent="1qnnJnAigtBVp87FX5BY-312" edge="1">
          <mxGeometry relative="1" as="geometry">
            <mxPoint x="115" y="160" as="sourcePoint" />
            <mxPoint x="115" y="220" as="targetPoint" />
          </mxGeometry>
        </mxCell>
        <mxCell id="1qnnJnAigtBVp87FX5BY-316" value="Đăng nhập" style="rounded=1;whiteSpace=wrap;html=1;arcSize=40;fontColor=#000000;fillColor=#ffffc0;strokeColor=#ff0000;" parent="1qnnJnAigtBVp87FX5BY-312" vertex="1">
          <mxGeometry x="55" y="112" width="120" height="40" as="geometry" />
        </mxCell>
        <mxCell id="1qnnJnAigtBVp87FX5BY-317" value="" style="edgeStyle=orthogonalEdgeStyle;rounded=0;orthogonalLoop=1;jettySize=auto;html=1;strokeColor=#FF0000;" parent="1qnnJnAigtBVp87FX5BY-312" source="1qnnJnAigtBVp87FX5BY-318" target="1qnnJnAigtBVp87FX5BY-320" edge="1">
          <mxGeometry relative="1" as="geometry" />
        </mxCell>
        <mxCell id="1qnnJnAigtBVp87FX5BY-318" value="Chọn&quot; Quản lý&amp;nbsp; tài khoản&quot;" style="rounded=1;whiteSpace=wrap;html=1;arcSize=40;fontColor=#000000;fillColor=#ffffc0;strokeColor=#ff0000;" parent="1qnnJnAigtBVp87FX5BY-312" vertex="1">
          <mxGeometry x="55" y="190" width="120" height="40" as="geometry" />
        </mxCell>
        <mxCell id="1qnnJnAigtBVp87FX5BY-319" value="" style="edgeStyle=orthogonalEdgeStyle;rounded=0;orthogonalLoop=1;jettySize=auto;html=1;strokeColor=#FF0000;" parent="1qnnJnAigtBVp87FX5BY-312" source="1qnnJnAigtBVp87FX5BY-320" target="1qnnJnAigtBVp87FX5BY-322" edge="1">
          <mxGeometry relative="1" as="geometry" />
        </mxCell>
        <mxCell id="1qnnJnAigtBVp87FX5BY-320" value="Chọn&quot;Cập nhật&quot;" style="rounded=1;whiteSpace=wrap;html=1;arcSize=40;fontColor=#000000;fillColor=#ffffc0;strokeColor=#ff0000;" parent="1qnnJnAigtBVp87FX5BY-312" vertex="1">
          <mxGeometry x="55" y="280" width="120" height="40" as="geometry" />
        </mxCell>
        <mxCell id="1qnnJnAigtBVp87FX5BY-321" value="" style="ellipse;html=1;shape=endState;fillColor=#000000;strokeColor=#ff0000;" parent="1qnnJnAigtBVp87FX5BY-312" vertex="1">
          <mxGeometry x="90" y="565" width="30" height="30" as="geometry" />
        </mxCell>
        <mxCell id="1qnnJnAigtBVp87FX5BY-322" value="Nhập thông tin tài khoản cần thay đổi" style="rounded=1;whiteSpace=wrap;html=1;arcSize=40;fontColor=#000000;fillColor=#ffffc0;strokeColor=#ff0000;" parent="1qnnJnAigtBVp87FX5BY-312" vertex="1">
          <mxGeometry x="55" y="359" width="120" height="40" as="geometry" />
        </mxCell>
        <mxCell id="1qnnJnAigtBVp87FX5BY-323" value="Hệ thống" style="swimlane;whiteSpace=wrap" parent="1" vertex="1">
          <mxGeometry x="1883.25" y="110" width="310" height="662" as="geometry" />
        </mxCell>
        <mxCell id="1qnnJnAigtBVp87FX5BY-324" value="Hiển thị form cập nhật" style="rounded=1;whiteSpace=wrap;html=1;arcSize=40;fontColor=#000000;fillColor=#ffffc0;strokeColor=#ff0000;" parent="1qnnJnAigtBVp87FX5BY-323" vertex="1">
          <mxGeometry x="50" y="280" width="120" height="40" as="geometry" />
        </mxCell>
        <mxCell id="1qnnJnAigtBVp87FX5BY-325" value="" style="rhombus;whiteSpace=wrap;html=1;fillColor=#ffffc0;strokeColor=#ff0000;fontColor=#000000;rounded=1;arcSize=40;" parent="1qnnJnAigtBVp87FX5BY-323" vertex="1">
          <mxGeometry x="90" y="390" width="80" height="80" as="geometry" />
        </mxCell>
        <mxCell id="1qnnJnAigtBVp87FX5BY-326" value="Hiển thị danh sách tài khoản" style="rounded=1;whiteSpace=wrap;html=1;arcSize=40;fontColor=#000000;fillColor=#ffffc0;strokeColor=#ff0000;" parent="1qnnJnAigtBVp87FX5BY-323" vertex="1">
          <mxGeometry x="70" y="565" width="120" height="40" as="geometry" />
        </mxCell>
        <mxCell id="1qnnJnAigtBVp87FX5BY-327" value="" style="endArrow=classic;html=1;rounded=0;exitX=0.487;exitY=0.935;exitDx=0;exitDy=0;exitPerimeter=0;fontColor=#FF0000;strokeColor=#FF0000;entryX=0.5;entryY=0;entryDx=0;entryDy=0;" parent="1qnnJnAigtBVp87FX5BY-323" source="1qnnJnAigtBVp87FX5BY-325" target="1qnnJnAigtBVp87FX5BY-329" edge="1">
          <mxGeometry width="50" height="50" relative="1" as="geometry">
            <mxPoint x="40" y="462" as="sourcePoint" />
            <mxPoint x="108.5" y="451" as="targetPoint" />
          </mxGeometry>
        </mxCell>
        <mxCell id="1qnnJnAigtBVp87FX5BY-328" value="&amp;nbsp;Hợp lệ" style="text;html=1;align=center;verticalAlign=middle;whiteSpace=wrap;rounded=0;fontColor=#FF0000;" parent="1qnnJnAigtBVp87FX5BY-323" vertex="1">
          <mxGeometry x="149.5" y="450" width="60" height="30" as="geometry" />
        </mxCell>
        <mxCell id="1qnnJnAigtBVp87FX5BY-329" value="Cập nhật thông tin&amp;nbsp; vào trong Database" style="rounded=1;whiteSpace=wrap;html=1;arcSize=40;fontColor=#000000;fillColor=#ffffc0;strokeColor=#ff0000;" parent="1qnnJnAigtBVp87FX5BY-323" vertex="1">
          <mxGeometry x="70" y="490" width="120" height="50" as="geometry" />
        </mxCell>
        <mxCell id="1qnnJnAigtBVp87FX5BY-330" value="" style="endArrow=classic;html=1;rounded=0;entryX=0.5;entryY=0;entryDx=0;entryDy=0;exitX=0.5;exitY=1;exitDx=0;exitDy=0;strokeColor=#FF0000;" parent="1qnnJnAigtBVp87FX5BY-323" source="1qnnJnAigtBVp87FX5BY-329" target="1qnnJnAigtBVp87FX5BY-326" edge="1">
          <mxGeometry width="50" height="50" relative="1" as="geometry">
            <mxPoint x="-15.5" y="390" as="sourcePoint" />
            <mxPoint x="34.5" y="340" as="targetPoint" />
          </mxGeometry>
        </mxCell>
        <mxCell id="1qnnJnAigtBVp87FX5BY-331" value="Không hợp lệ" style="text;html=1;align=center;verticalAlign=middle;whiteSpace=wrap;rounded=0;fontColor=#FF0000;" parent="1qnnJnAigtBVp87FX5BY-323" vertex="1">
          <mxGeometry x="44.5" y="379" width="60" height="30" as="geometry" />
        </mxCell>
        <mxCell id="1qnnJnAigtBVp87FX5BY-332" value="" style="edgeStyle=segmentEdgeStyle;endArrow=classic;html=1;curved=0;rounded=0;endSize=8;startSize=8;entryX=0;entryY=0.5;entryDx=0;entryDy=0;exitX=0.5;exitY=1;exitDx=0;exitDy=0;strokeColor=#FF0000;" parent="1" source="1qnnJnAigtBVp87FX5BY-322" target="1qnnJnAigtBVp87FX5BY-325" edge="1">
          <mxGeometry width="50" height="50" relative="1" as="geometry">
            <mxPoint x="1727.75" y="540" as="sourcePoint" />
            <mxPoint x="1787.75" y="530" as="targetPoint" />
            <Array as="points">
              <mxPoint x="1727.75" y="509" />
              <mxPoint x="1727.75" y="540" />
            </Array>
          </mxGeometry>
        </mxCell>
        <mxCell id="1qnnJnAigtBVp87FX5BY-333" value="&lt;div&gt;&lt;br&gt;&lt;/div&gt;&lt;div&gt;&lt;br&gt;&lt;/div&gt;" style="edgeLabel;html=1;align=center;verticalAlign=middle;resizable=0;points=[];" parent="1qnnJnAigtBVp87FX5BY-332" vertex="1" connectable="0">
          <mxGeometry x="-1" y="2" relative="1" as="geometry">
            <mxPoint x="-1" as="offset" />
          </mxGeometry>
        </mxCell>
        <mxCell id="1qnnJnAigtBVp87FX5BY-334" value="" style="endArrow=classic;html=1;rounded=0;exitX=1;exitY=0.5;exitDx=0;exitDy=0;entryX=0;entryY=0.5;entryDx=0;entryDy=0;strokeColor=#FF0000;" parent="1" source="1qnnJnAigtBVp87FX5BY-320" target="1qnnJnAigtBVp87FX5BY-324" edge="1">
          <mxGeometry width="50" height="50" relative="1" as="geometry">
            <mxPoint x="1897.75" y="520" as="sourcePoint" />
            <mxPoint x="1917.75" y="410" as="targetPoint" />
          </mxGeometry>
        </mxCell>
        <mxCell id="1qnnJnAigtBVp87FX5BY-335" value="" style="edgeStyle=orthogonalEdgeStyle;html=1;verticalAlign=bottom;endArrow=open;endSize=8;strokeColor=#ff0000;rounded=0;entryX=1;entryY=0.5;entryDx=0;entryDy=0;exitX=0;exitY=0.5;exitDx=0;exitDy=0;" parent="1" source="1qnnJnAigtBVp87FX5BY-326" target="1qnnJnAigtBVp87FX5BY-321" edge="1">
          <mxGeometry relative="1" as="geometry">
            <mxPoint x="1993.25" y="662" as="targetPoint" />
            <mxPoint x="1827.75" y="660" as="sourcePoint" />
            <Array as="points">
              <mxPoint x="1727.75" y="690" />
            </Array>
          </mxGeometry>
        </mxCell>
        <mxCell id="1qnnJnAigtBVp87FX5BY-336" value="" style="edgeStyle=segmentEdgeStyle;endArrow=classic;html=1;curved=0;rounded=0;endSize=8;startSize=8;exitX=0.5;exitY=1;exitDx=0;exitDy=0;strokeColor=#FF0000;" parent="1" source="1qnnJnAigtBVp87FX5BY-324" edge="1">
          <mxGeometry width="50" height="50" relative="1" as="geometry">
            <mxPoint x="2027.75" y="490" as="sourcePoint" />
            <mxPoint x="1787.75" y="490" as="targetPoint" />
            <Array as="points">
              <mxPoint x="2013.75" y="490" />
            </Array>
          </mxGeometry>
        </mxCell>
        <mxCell id="1qnnJnAigtBVp87FX5BY-337" value="" style="edgeStyle=elbowEdgeStyle;elbow=horizontal;endArrow=classic;html=1;curved=0;rounded=0;endSize=8;startSize=8;entryX=0.938;entryY=0.892;entryDx=0;entryDy=0;entryPerimeter=0;exitX=0.159;exitY=0.257;exitDx=0;exitDy=0;exitPerimeter=0;strokeColor=#FF0000;" parent="1" source="1qnnJnAigtBVp87FX5BY-325" target="1qnnJnAigtBVp87FX5BY-322" edge="1">
          <mxGeometry width="50" height="50" relative="1" as="geometry">
            <mxPoint x="1797.75" y="610" as="sourcePoint" />
            <mxPoint x="1847.75" y="560" as="targetPoint" />
          </mxGeometry>
        </mxCell>
        <mxCell id="1qnnJnAigtBVp87FX5BY-353" value="Quản trị viên" style="swimlane;whiteSpace=wrap" parent="1" vertex="1">
          <mxGeometry x="2160" y="880" width="275.5" height="660" as="geometry" />
        </mxCell>
        <mxCell id="1qnnJnAigtBVp87FX5BY-354" value="" style="ellipse;shape=startState;fillColor=#000000;strokeColor=#ff0000;" parent="1qnnJnAigtBVp87FX5BY-353" vertex="1">
          <mxGeometry x="100" y="40" width="30" height="30" as="geometry" />
        </mxCell>
        <mxCell id="1qnnJnAigtBVp87FX5BY-355" value="" style="edgeStyle=elbowEdgeStyle;elbow=horizontal;verticalAlign=bottom;endArrow=open;endSize=8;strokeColor=#FF0000;endFill=1;rounded=0" parent="1qnnJnAigtBVp87FX5BY-353" source="1qnnJnAigtBVp87FX5BY-354" edge="1">
          <mxGeometry x="100" y="40" as="geometry">
            <mxPoint x="115" y="110" as="targetPoint" />
          </mxGeometry>
        </mxCell>
        <mxCell id="1qnnJnAigtBVp87FX5BY-356" value="" style="endArrow=open;strokeColor=#FF0000;endFill=1;rounded=0" parent="1qnnJnAigtBVp87FX5BY-353" edge="1">
          <mxGeometry relative="1" as="geometry">
            <mxPoint x="115" y="160" as="sourcePoint" />
            <mxPoint x="115" y="220" as="targetPoint" />
          </mxGeometry>
        </mxCell>
        <mxCell id="1qnnJnAigtBVp87FX5BY-357" value="Đăng nhập" style="rounded=1;whiteSpace=wrap;html=1;arcSize=40;fontColor=#000000;fillColor=#ffffc0;strokeColor=#ff0000;" parent="1qnnJnAigtBVp87FX5BY-353" vertex="1">
          <mxGeometry x="55" y="112" width="120" height="40" as="geometry" />
        </mxCell>
        <mxCell id="1qnnJnAigtBVp87FX5BY-358" value="" style="edgeStyle=orthogonalEdgeStyle;rounded=0;orthogonalLoop=1;jettySize=auto;html=1;strokeColor=#FF0000;" parent="1qnnJnAigtBVp87FX5BY-353" source="1qnnJnAigtBVp87FX5BY-359" target="1qnnJnAigtBVp87FX5BY-360" edge="1">
          <mxGeometry relative="1" as="geometry" />
        </mxCell>
        <mxCell id="1qnnJnAigtBVp87FX5BY-359" value="Chọn&quot; Quản lý tài khoản&quot;" style="rounded=1;whiteSpace=wrap;html=1;arcSize=40;fontColor=#000000;fillColor=#ffffc0;strokeColor=#ff0000;" parent="1qnnJnAigtBVp87FX5BY-353" vertex="1">
          <mxGeometry x="55" y="190" width="120" height="40" as="geometry" />
        </mxCell>
        <mxCell id="1qnnJnAigtBVp87FX5BY-360" value="Chọn&quot;Xóa&quot;" style="rounded=1;whiteSpace=wrap;html=1;arcSize=40;fontColor=#000000;fillColor=#ffffc0;strokeColor=#ff0000;" parent="1qnnJnAigtBVp87FX5BY-353" vertex="1">
          <mxGeometry x="55" y="280" width="120" height="40" as="geometry" />
        </mxCell>
        <mxCell id="1qnnJnAigtBVp87FX5BY-361" value="" style="ellipse;html=1;shape=endState;fillColor=#000000;strokeColor=#ff0000;" parent="1qnnJnAigtBVp87FX5BY-353" vertex="1">
          <mxGeometry x="100" y="395" width="30" height="30" as="geometry" />
        </mxCell>
        <mxCell id="1qnnJnAigtBVp87FX5BY-362" value="Hệ thống" style="swimlane;whiteSpace=wrap" parent="1" vertex="1">
          <mxGeometry x="2435.5" y="880" width="310" height="662" as="geometry" />
        </mxCell>
        <mxCell id="1qnnJnAigtBVp87FX5BY-363" value="Xóa tài khoản được chọn" style="rounded=1;whiteSpace=wrap;html=1;arcSize=40;fontColor=#000000;fillColor=#ffffc0;strokeColor=#ff0000;" parent="1qnnJnAigtBVp87FX5BY-362" vertex="1">
          <mxGeometry x="70" y="280" width="120" height="40" as="geometry" />
        </mxCell>
        <mxCell id="1qnnJnAigtBVp87FX5BY-364" value="Hiển thị danh sách tài khoản" style="rounded=1;whiteSpace=wrap;html=1;arcSize=40;fontColor=#000000;fillColor=#ffffc0;strokeColor=#ff0000;" parent="1qnnJnAigtBVp87FX5BY-362" vertex="1">
          <mxGeometry x="70" y="390" width="120" height="40" as="geometry" />
        </mxCell>
        <mxCell id="1qnnJnAigtBVp87FX5BY-365" value="" style="endArrow=classic;html=1;rounded=0;exitX=0.5;exitY=1;exitDx=0;exitDy=0;entryX=0.5;entryY=0;entryDx=0;entryDy=0;strokeColor=#FF0000;" parent="1qnnJnAigtBVp87FX5BY-362" source="1qnnJnAigtBVp87FX5BY-363" target="1qnnJnAigtBVp87FX5BY-364" edge="1">
          <mxGeometry width="50" height="50" relative="1" as="geometry">
            <mxPoint x="-86" y="320" as="sourcePoint" />
            <mxPoint x="90" y="320" as="targetPoint" />
          </mxGeometry>
        </mxCell>
        <mxCell id="1qnnJnAigtBVp87FX5BY-366" value="" style="endArrow=classic;html=1;rounded=0;exitX=1;exitY=0.5;exitDx=0;exitDy=0;entryX=0;entryY=0.5;entryDx=0;entryDy=0;strokeColor=#FF0000;" parent="1" source="1qnnJnAigtBVp87FX5BY-360" target="1qnnJnAigtBVp87FX5BY-363" edge="1">
          <mxGeometry width="50" height="50" relative="1" as="geometry">
            <mxPoint x="2455.5" y="1290" as="sourcePoint" />
            <mxPoint x="2475.5" y="1180" as="targetPoint" />
          </mxGeometry>
        </mxCell>
        <mxCell id="1qnnJnAigtBVp87FX5BY-367" value="" style="endArrow=classic;html=1;rounded=0;exitX=0;exitY=0.5;exitDx=0;exitDy=0;entryX=1;entryY=0.5;entryDx=0;entryDy=0;strokeColor=#FF0000;" parent="1" source="1qnnJnAigtBVp87FX5BY-364" target="1qnnJnAigtBVp87FX5BY-361" edge="1">
          <mxGeometry width="50" height="50" relative="1" as="geometry">
            <mxPoint x="2345" y="1190" as="sourcePoint" />
            <mxPoint x="2521" y="1190" as="targetPoint" />
          </mxGeometry>
        </mxCell>
        <mxCell id="1qnnJnAigtBVp87FX5BY-368" value="Quản trị viên" style="swimlane;whiteSpace=wrap" parent="1" vertex="1">
          <mxGeometry x="2620" y="140" width="275.5" height="660" as="geometry" />
        </mxCell>
        <mxCell id="1qnnJnAigtBVp87FX5BY-369" value="" style="ellipse;shape=startState;fillColor=#000000;strokeColor=#ff0000;" parent="1qnnJnAigtBVp87FX5BY-368" vertex="1">
          <mxGeometry x="100" y="30" width="30" height="30" as="geometry" />
        </mxCell>
        <mxCell id="1qnnJnAigtBVp87FX5BY-370" value="" style="edgeStyle=elbowEdgeStyle;elbow=horizontal;verticalAlign=bottom;endArrow=open;endSize=8;strokeColor=#FF0000;endFill=1;rounded=0" parent="1qnnJnAigtBVp87FX5BY-368" source="1qnnJnAigtBVp87FX5BY-369" edge="1">
          <mxGeometry x="100" y="40" as="geometry">
            <mxPoint x="115" y="110" as="targetPoint" />
          </mxGeometry>
        </mxCell>
        <mxCell id="1qnnJnAigtBVp87FX5BY-372" value="Đăng nhập" style="rounded=1;whiteSpace=wrap;html=1;arcSize=40;fontColor=#000000;fillColor=#ffffc0;strokeColor=#ff0000;" parent="1qnnJnAigtBVp87FX5BY-368" vertex="1">
          <mxGeometry x="55" y="100" width="120" height="40" as="geometry" />
        </mxCell>
        <mxCell id="1qnnJnAigtBVp87FX5BY-391" style="edgeStyle=orthogonalEdgeStyle;rounded=0;orthogonalLoop=1;jettySize=auto;html=1;exitX=0.5;exitY=1;exitDx=0;exitDy=0;entryX=0.5;entryY=0.667;entryDx=0;entryDy=0;entryPerimeter=0;" parent="1qnnJnAigtBVp87FX5BY-368" source="1qnnJnAigtBVp87FX5BY-369" target="1qnnJnAigtBVp87FX5BY-369" edge="1">
          <mxGeometry relative="1" as="geometry" />
        </mxCell>
        <mxCell id="1qnnJnAigtBVp87FX5BY-394" value="Kiểm tra thông tin đăng nhập" style="rounded=1;whiteSpace=wrap;html=1;arcSize=40;fontColor=#000000;fillColor=#ffffc0;strokeColor=#ff0000;" parent="1qnnJnAigtBVp87FX5BY-368" vertex="1">
          <mxGeometry x="55" y="240" width="120" height="40" as="geometry" />
        </mxCell>
        <mxCell id="1qnnJnAigtBVp87FX5BY-400" value="" style="endArrow=classic;html=1;rounded=0;strokeColor=#FF0000;entryX=0.5;entryY=1;entryDx=0;entryDy=0;" parent="1qnnJnAigtBVp87FX5BY-368" source="1qnnJnAigtBVp87FX5BY-394" target="1qnnJnAigtBVp87FX5BY-372" edge="1">
          <mxGeometry width="50" height="50" relative="1" as="geometry">
            <mxPoint x="410" y="270" as="sourcePoint" />
            <mxPoint x="185" y="270" as="targetPoint" />
          </mxGeometry>
        </mxCell>
        <mxCell id="1qnnJnAigtBVp87FX5BY-377" value="Hệ thống" style="swimlane;whiteSpace=wrap" parent="1" vertex="1">
          <mxGeometry x="2895.5" y="140" width="310" height="662" as="geometry" />
        </mxCell>
        <mxCell id="1qnnJnAigtBVp87FX5BY-378" value="Hiển thị báo cáo doanh thu" style="rounded=1;whiteSpace=wrap;html=1;arcSize=40;fontColor=#000000;fillColor=#ffffc0;strokeColor=#ff0000;" parent="1qnnJnAigtBVp87FX5BY-377" vertex="1">
          <mxGeometry x="70" y="273" width="120" height="40" as="geometry" />
        </mxCell>
        <mxCell id="1qnnJnAigtBVp87FX5BY-380" value="" style="endArrow=classic;html=1;rounded=0;exitX=0.5;exitY=1;exitDx=0;exitDy=0;entryX=0.5;entryY=0;entryDx=0;entryDy=0;strokeColor=#FF0000;" parent="1qnnJnAigtBVp87FX5BY-377" source="1qnnJnAigtBVp87FX5BY-378" edge="1">
          <mxGeometry width="50" height="50" relative="1" as="geometry">
            <mxPoint x="-86" y="320" as="sourcePoint" />
            <mxPoint x="130" y="390" as="targetPoint" />
          </mxGeometry>
        </mxCell>
        <mxCell id="1qnnJnAigtBVp87FX5BY-376" value="" style="ellipse;html=1;shape=endState;fillColor=#000000;strokeColor=#ff0000;" parent="1qnnJnAigtBVp87FX5BY-377" vertex="1">
          <mxGeometry x="115" y="395" width="30" height="30" as="geometry" />
        </mxCell>
        <mxCell id="1qnnJnAigtBVp87FX5BY-384" value="Hợp lệ" style="text;html=1;align=center;verticalAlign=middle;whiteSpace=wrap;rounded=0;fontColor=#FF0000;" parent="1qnnJnAigtBVp87FX5BY-377" vertex="1">
          <mxGeometry x="130" y="200" width="60" height="30" as="geometry" />
        </mxCell>
        <mxCell id="1qnnJnAigtBVp87FX5BY-389" value="Xác thực thông tin tài khoản" style="rounded=1;whiteSpace=wrap;html=1;arcSize=40;fontColor=#000000;fillColor=#ffffc0;strokeColor=#ff0000;" parent="1qnnJnAigtBVp87FX5BY-377" vertex="1">
          <mxGeometry x="64.5" y="100" width="120" height="40" as="geometry" />
        </mxCell>
        <mxCell id="1qnnJnAigtBVp87FX5BY-390" value="" style="endArrow=classic;html=1;rounded=0;strokeColor=#FF0000;entryX=0.5;entryY=0;entryDx=0;entryDy=0;" parent="1qnnJnAigtBVp87FX5BY-377" target="1qnnJnAigtBVp87FX5BY-378" edge="1">
          <mxGeometry width="50" height="50" relative="1" as="geometry">
            <mxPoint x="130.5" y="140" as="sourcePoint" />
            <mxPoint x="140" y="283" as="targetPoint" />
          </mxGeometry>
        </mxCell>
        <mxCell id="1qnnJnAigtBVp87FX5BY-401" value="Không hợp lệ" style="text;html=1;align=center;verticalAlign=middle;whiteSpace=wrap;rounded=0;fontColor=#FF0000;" parent="1qnnJnAigtBVp87FX5BY-377" vertex="1">
          <mxGeometry x="10" y="230" width="60" height="30" as="geometry" />
        </mxCell>
        <mxCell id="1qnnJnAigtBVp87FX5BY-397" value="" style="endArrow=classic;html=1;rounded=0;strokeColor=#FF0000;entryX=0;entryY=0.5;entryDx=0;entryDy=0;exitX=1;exitY=0.5;exitDx=0;exitDy=0;" parent="1" source="1qnnJnAigtBVp87FX5BY-372" target="1qnnJnAigtBVp87FX5BY-389" edge="1">
          <mxGeometry width="50" height="50" relative="1" as="geometry">
            <mxPoint x="2840.5" y="200" as="sourcePoint" />
            <mxPoint x="2840" y="333" as="targetPoint" />
          </mxGeometry>
        </mxCell>
        <mxCell id="1qnnJnAigtBVp87FX5BY-398" value="" style="endArrow=classic;html=1;rounded=0;strokeColor=#FF0000;entryX=1;entryY=0.5;entryDx=0;entryDy=0;" parent="1" target="1qnnJnAigtBVp87FX5BY-394" edge="1">
          <mxGeometry width="50" height="50" relative="1" as="geometry">
            <mxPoint x="3020" y="400" as="sourcePoint" />
            <mxPoint x="3035.5" y="423" as="targetPoint" />
          </mxGeometry>
        </mxCell>
        <mxCell id="q1jhY8t0Y62SEOMEheAa-10" value="&lt;font color=&quot;#e70d0d&quot;&gt;Không hợp lệ&lt;/font&gt;" style="edgeStyle=orthogonalEdgeStyle;html=1;align=left;verticalAlign=bottom;endArrow=open;endSize=8;strokeColor=#ff0000;rounded=0;entryX=1;entryY=0.75;entryDx=0;entryDy=0;" edge="1" source="q1jhY8t0Y62SEOMEheAa-9" parent="1" target="1qnnJnAigtBVp87FX5BY-115">
          <mxGeometry x="-0.2442" y="-2" relative="1" as="geometry">
            <mxPoint x="380" y="480" as="targetPoint" />
            <mxPoint as="offset" />
          </mxGeometry>
        </mxCell>
        <mxCell id="q1jhY8t0Y62SEOMEheAa-13" value="" style="edgeStyle=orthogonalEdgeStyle;html=1;align=left;verticalAlign=bottom;endArrow=open;endSize=8;strokeColor=#ff0000;rounded=0;entryX=0.966;entryY=0.844;entryDx=0;entryDy=0;entryPerimeter=0;" edge="1" source="q1jhY8t0Y62SEOMEheAa-12" parent="1" target="1qnnJnAigtBVp87FX5BY-159">
          <mxGeometry x="-1" relative="1" as="geometry">
            <mxPoint x="1403" y="420" as="targetPoint" />
          </mxGeometry>
        </mxCell>
        <mxCell id="q1jhY8t0Y62SEOMEheAa-16" value="" style="edgeStyle=elbowEdgeStyle;html=1;verticalAlign=bottom;endArrow=open;endSize=8;strokeColor=#ff0000;rounded=0;exitX=0.5;exitY=1;exitDx=0;exitDy=0;entryX=0.15;entryY=0.75;entryDx=0;entryDy=0;entryPerimeter=0;" edge="1" parent="1" source="1qnnJnAigtBVp87FX5BY-159" target="q1jhY8t0Y62SEOMEheAa-12">
          <mxGeometry relative="1" as="geometry">
            <mxPoint x="1215.5" y="489.36" as="targetPoint" />
            <mxPoint x="1004.46" y="401.0000000000001" as="sourcePoint" />
            <Array as="points">
              <mxPoint x="1090" y="430" />
            </Array>
          </mxGeometry>
        </mxCell>
        <mxCell id="q1jhY8t0Y62SEOMEheAa-21" value="Quản trị viên" style="swimlane;whiteSpace=wrap" vertex="1" parent="1">
          <mxGeometry x="760" y="860" width="275.5" height="660" as="geometry" />
        </mxCell>
        <mxCell id="q1jhY8t0Y62SEOMEheAa-22" value="" style="ellipse;shape=startState;fillColor=#000000;strokeColor=#ff0000;" vertex="1" parent="q1jhY8t0Y62SEOMEheAa-21">
          <mxGeometry x="100" y="40" width="30" height="30" as="geometry" />
        </mxCell>
        <mxCell id="q1jhY8t0Y62SEOMEheAa-23" value="" style="edgeStyle=elbowEdgeStyle;elbow=horizontal;verticalAlign=bottom;endArrow=open;endSize=8;strokeColor=#FF0000;endFill=1;rounded=0" edge="1" parent="q1jhY8t0Y62SEOMEheAa-21" source="q1jhY8t0Y62SEOMEheAa-22">
          <mxGeometry x="100" y="40" as="geometry">
            <mxPoint x="115" y="110" as="targetPoint" />
          </mxGeometry>
        </mxCell>
        <mxCell id="q1jhY8t0Y62SEOMEheAa-24" value="" style="endArrow=open;strokeColor=#FF0000;endFill=1;rounded=0" edge="1" parent="q1jhY8t0Y62SEOMEheAa-21">
          <mxGeometry relative="1" as="geometry">
            <mxPoint x="115" y="160" as="sourcePoint" />
            <mxPoint x="115" y="220" as="targetPoint" />
          </mxGeometry>
        </mxCell>
        <mxCell id="q1jhY8t0Y62SEOMEheAa-25" value="Đăng nhập" style="rounded=1;whiteSpace=wrap;html=1;arcSize=40;fontColor=#000000;fillColor=#ffffc0;strokeColor=#ff0000;" vertex="1" parent="q1jhY8t0Y62SEOMEheAa-21">
          <mxGeometry x="55" y="112" width="120" height="40" as="geometry" />
        </mxCell>
        <mxCell id="q1jhY8t0Y62SEOMEheAa-26" value="" style="edgeStyle=orthogonalEdgeStyle;rounded=0;orthogonalLoop=1;jettySize=auto;html=1;strokeColor=#FF0000;" edge="1" parent="q1jhY8t0Y62SEOMEheAa-21" source="q1jhY8t0Y62SEOMEheAa-27" target="q1jhY8t0Y62SEOMEheAa-29">
          <mxGeometry relative="1" as="geometry" />
        </mxCell>
        <mxCell id="q1jhY8t0Y62SEOMEheAa-27" value="Chọn&quot; Quản lý&amp;nbsp; sản phẩm&quot;" style="rounded=1;whiteSpace=wrap;html=1;arcSize=40;fontColor=#000000;fillColor=#ffffc0;strokeColor=#ff0000;" vertex="1" parent="q1jhY8t0Y62SEOMEheAa-21">
          <mxGeometry x="55" y="190" width="120" height="40" as="geometry" />
        </mxCell>
        <mxCell id="q1jhY8t0Y62SEOMEheAa-28" value="" style="edgeStyle=orthogonalEdgeStyle;rounded=0;orthogonalLoop=1;jettySize=auto;html=1;strokeColor=#FF0000;" edge="1" parent="q1jhY8t0Y62SEOMEheAa-21" source="q1jhY8t0Y62SEOMEheAa-29" target="q1jhY8t0Y62SEOMEheAa-31">
          <mxGeometry relative="1" as="geometry" />
        </mxCell>
        <mxCell id="q1jhY8t0Y62SEOMEheAa-29" value="Chọn&quot;Sửa&quot;" style="rounded=1;whiteSpace=wrap;html=1;arcSize=40;fontColor=#000000;fillColor=#ffffc0;strokeColor=#ff0000;" vertex="1" parent="q1jhY8t0Y62SEOMEheAa-21">
          <mxGeometry x="55" y="280" width="120" height="40" as="geometry" />
        </mxCell>
        <mxCell id="q1jhY8t0Y62SEOMEheAa-30" value="" style="ellipse;html=1;shape=endState;fillColor=#000000;strokeColor=#ff0000;" vertex="1" parent="q1jhY8t0Y62SEOMEheAa-21">
          <mxGeometry x="90" y="565" width="30" height="30" as="geometry" />
        </mxCell>
        <mxCell id="q1jhY8t0Y62SEOMEheAa-31" value="Nhập thông tin sản phẩm" style="rounded=1;whiteSpace=wrap;html=1;arcSize=40;fontColor=#000000;fillColor=#ffffc0;strokeColor=#ff0000;" vertex="1" parent="q1jhY8t0Y62SEOMEheAa-21">
          <mxGeometry x="55" y="359" width="120" height="40" as="geometry" />
        </mxCell>
        <mxCell id="q1jhY8t0Y62SEOMEheAa-32" value="" style="edgeStyle=segmentEdgeStyle;endArrow=classic;html=1;curved=0;rounded=0;endSize=8;startSize=8;entryX=0;entryY=0.5;entryDx=0;entryDy=0;exitX=0.5;exitY=1;exitDx=0;exitDy=0;strokeColor=#FF0000;" edge="1" parent="q1jhY8t0Y62SEOMEheAa-21" source="q1jhY8t0Y62SEOMEheAa-31">
          <mxGeometry width="50" height="50" relative="1" as="geometry">
            <mxPoint x="120" y="430" as="sourcePoint" />
            <mxPoint x="365.5" y="430" as="targetPoint" />
            <Array as="points">
              <mxPoint x="120" y="399" />
              <mxPoint x="120" y="430" />
            </Array>
          </mxGeometry>
        </mxCell>
        <mxCell id="q1jhY8t0Y62SEOMEheAa-33" value="&lt;div&gt;&lt;br&gt;&lt;/div&gt;&lt;div&gt;&lt;br&gt;&lt;/div&gt;" style="edgeLabel;html=1;align=center;verticalAlign=middle;resizable=0;points=[];" vertex="1" connectable="0" parent="q1jhY8t0Y62SEOMEheAa-32">
          <mxGeometry x="-1" y="2" relative="1" as="geometry">
            <mxPoint x="-1" as="offset" />
          </mxGeometry>
        </mxCell>
        <mxCell id="q1jhY8t0Y62SEOMEheAa-34" value="Hệ thống" style="swimlane;whiteSpace=wrap" vertex="1" parent="1">
          <mxGeometry x="1035.5" y="860" width="310" height="662" as="geometry" />
        </mxCell>
        <mxCell id="q1jhY8t0Y62SEOMEheAa-35" value="Hiển thị form sản phẩm" style="rounded=1;whiteSpace=wrap;html=1;arcSize=40;fontColor=#000000;fillColor=#ffffc0;strokeColor=#ff0000;" vertex="1" parent="q1jhY8t0Y62SEOMEheAa-34">
          <mxGeometry x="70" y="280" width="120" height="40" as="geometry" />
        </mxCell>
        <mxCell id="q1jhY8t0Y62SEOMEheAa-36" value="Trả kết quả về database" style="rounded=1;whiteSpace=wrap;html=1;arcSize=40;fontColor=#000000;fillColor=#ffffc0;strokeColor=#ff0000;" vertex="1" parent="q1jhY8t0Y62SEOMEheAa-34">
          <mxGeometry x="70" y="560" width="120" height="40" as="geometry" />
        </mxCell>
        <mxCell id="q1jhY8t0Y62SEOMEheAa-37" value="" style="endArrow=classic;html=1;rounded=0;exitX=0.5;exitY=1;exitDx=0;exitDy=0;fontColor=#FF0000;strokeColor=#FF0000;entryX=0.5;entryY=0;entryDx=0;entryDy=0;" edge="1" parent="q1jhY8t0Y62SEOMEheAa-34" source="q1jhY8t0Y62SEOMEheAa-42" target="q1jhY8t0Y62SEOMEheAa-39">
          <mxGeometry width="50" height="50" relative="1" as="geometry">
            <mxPoint x="128.96000000000004" y="464.8000000000002" as="sourcePoint" />
            <mxPoint x="108.5" y="451" as="targetPoint" />
          </mxGeometry>
        </mxCell>
        <mxCell id="q1jhY8t0Y62SEOMEheAa-38" value="&amp;nbsp;Hợp lệ" style="text;html=1;align=center;verticalAlign=middle;whiteSpace=wrap;rounded=0;fontColor=#FF0000;" vertex="1" parent="q1jhY8t0Y62SEOMEheAa-34">
          <mxGeometry x="130" y="450" width="60" height="30" as="geometry" />
        </mxCell>
        <mxCell id="q1jhY8t0Y62SEOMEheAa-39" value="Cập nhật sản phẩm&amp;nbsp; vào trong Database" style="rounded=1;whiteSpace=wrap;html=1;arcSize=40;fontColor=#000000;fillColor=#ffffc0;strokeColor=#ff0000;" vertex="1" parent="q1jhY8t0Y62SEOMEheAa-34">
          <mxGeometry x="70" y="490" width="120" height="40" as="geometry" />
        </mxCell>
        <mxCell id="q1jhY8t0Y62SEOMEheAa-40" value="" style="endArrow=classic;html=1;rounded=0;entryX=0.5;entryY=0;entryDx=0;entryDy=0;exitX=0.5;exitY=1;exitDx=0;exitDy=0;strokeColor=#FF0000;" edge="1" parent="q1jhY8t0Y62SEOMEheAa-34" source="q1jhY8t0Y62SEOMEheAa-39" target="q1jhY8t0Y62SEOMEheAa-36">
          <mxGeometry width="50" height="50" relative="1" as="geometry">
            <mxPoint x="-15.5" y="390" as="sourcePoint" />
            <mxPoint x="34.5" y="340" as="targetPoint" />
          </mxGeometry>
        </mxCell>
        <mxCell id="q1jhY8t0Y62SEOMEheAa-41" value="Không hợp lệ" style="text;html=1;align=center;verticalAlign=middle;whiteSpace=wrap;rounded=0;fontColor=#FF0000;" vertex="1" parent="q1jhY8t0Y62SEOMEheAa-34">
          <mxGeometry x="44.5" y="379" width="60" height="30" as="geometry" />
        </mxCell>
        <mxCell id="q1jhY8t0Y62SEOMEheAa-42" value="Điều kiện" style="rhombus;whiteSpace=wrap;html=1;fontColor=#000000;fillColor=#ffffc0;strokeColor=#ff0000;" vertex="1" parent="q1jhY8t0Y62SEOMEheAa-34">
          <mxGeometry x="90" y="410" width="80" height="40" as="geometry" />
        </mxCell>
        <mxCell id="q1jhY8t0Y62SEOMEheAa-43" value="" style="endArrow=classic;html=1;rounded=0;exitX=1;exitY=0.5;exitDx=0;exitDy=0;entryX=0;entryY=0.5;entryDx=0;entryDy=0;strokeColor=#FF0000;" edge="1" parent="1" source="q1jhY8t0Y62SEOMEheAa-29" target="q1jhY8t0Y62SEOMEheAa-35">
          <mxGeometry width="50" height="50" relative="1" as="geometry">
            <mxPoint x="1050" y="1270" as="sourcePoint" />
            <mxPoint x="1070" y="1160" as="targetPoint" />
          </mxGeometry>
        </mxCell>
        <mxCell id="q1jhY8t0Y62SEOMEheAa-44" value="" style="edgeStyle=orthogonalEdgeStyle;html=1;verticalAlign=bottom;endArrow=open;endSize=8;strokeColor=#ff0000;rounded=0;entryX=1;entryY=0.5;entryDx=0;entryDy=0;exitX=0;exitY=0.5;exitDx=0;exitDy=0;" edge="1" parent="1" source="q1jhY8t0Y62SEOMEheAa-36" target="q1jhY8t0Y62SEOMEheAa-30">
          <mxGeometry relative="1" as="geometry">
            <mxPoint x="1145.5" y="1412" as="targetPoint" />
            <mxPoint x="980" y="1410" as="sourcePoint" />
            <Array as="points">
              <mxPoint x="880" y="1440" />
            </Array>
          </mxGeometry>
        </mxCell>
        <mxCell id="q1jhY8t0Y62SEOMEheAa-45" value="" style="edgeStyle=segmentEdgeStyle;endArrow=classic;html=1;curved=0;rounded=0;endSize=8;startSize=8;exitX=0.5;exitY=1;exitDx=0;exitDy=0;strokeColor=#FF0000;" edge="1" parent="1" source="q1jhY8t0Y62SEOMEheAa-35">
          <mxGeometry width="50" height="50" relative="1" as="geometry">
            <mxPoint x="1180" y="1240" as="sourcePoint" />
            <mxPoint x="940" y="1240" as="targetPoint" />
            <Array as="points">
              <mxPoint x="1166" y="1240" />
            </Array>
          </mxGeometry>
        </mxCell>
        <mxCell id="q1jhY8t0Y62SEOMEheAa-46" value="" style="edgeStyle=elbowEdgeStyle;elbow=horizontal;endArrow=classic;html=1;curved=0;rounded=0;endSize=8;startSize=8;entryX=0.938;entryY=0.892;entryDx=0;entryDy=0;entryPerimeter=0;exitX=0.431;exitY=0;exitDx=0;exitDy=0;exitPerimeter=0;strokeColor=#FF0000;" edge="1" parent="1" source="q1jhY8t0Y62SEOMEheAa-42" target="q1jhY8t0Y62SEOMEheAa-31">
          <mxGeometry width="50" height="50" relative="1" as="geometry">
            <mxPoint x="1138.2199999999998" y="1270.56" as="sourcePoint" />
            <mxPoint x="1000" y="1310" as="targetPoint" />
          </mxGeometry>
        </mxCell>
        <mxCell id="q1jhY8t0Y62SEOMEheAa-73" value="Quản trị viên" style="swimlane;whiteSpace=wrap" vertex="1" parent="1">
          <mxGeometry x="1475.5" y="1600" width="275.5" height="660" as="geometry" />
        </mxCell>
        <mxCell id="q1jhY8t0Y62SEOMEheAa-74" value="" style="ellipse;shape=startState;fillColor=#000000;strokeColor=#ff0000;" vertex="1" parent="q1jhY8t0Y62SEOMEheAa-73">
          <mxGeometry x="100" y="40" width="30" height="30" as="geometry" />
        </mxCell>
        <mxCell id="q1jhY8t0Y62SEOMEheAa-75" value="" style="edgeStyle=elbowEdgeStyle;elbow=horizontal;verticalAlign=bottom;endArrow=open;endSize=8;strokeColor=#FF0000;endFill=1;rounded=0" edge="1" parent="q1jhY8t0Y62SEOMEheAa-73" source="q1jhY8t0Y62SEOMEheAa-74">
          <mxGeometry x="100" y="40" as="geometry">
            <mxPoint x="115" y="110" as="targetPoint" />
          </mxGeometry>
        </mxCell>
        <mxCell id="q1jhY8t0Y62SEOMEheAa-76" value="" style="endArrow=open;strokeColor=#FF0000;endFill=1;rounded=0" edge="1" parent="q1jhY8t0Y62SEOMEheAa-73">
          <mxGeometry relative="1" as="geometry">
            <mxPoint x="115" y="160" as="sourcePoint" />
            <mxPoint x="115" y="220" as="targetPoint" />
          </mxGeometry>
        </mxCell>
        <mxCell id="q1jhY8t0Y62SEOMEheAa-77" value="Đăng nhập" style="rounded=1;whiteSpace=wrap;html=1;arcSize=40;fontColor=#000000;fillColor=#ffffc0;strokeColor=#ff0000;" vertex="1" parent="q1jhY8t0Y62SEOMEheAa-73">
          <mxGeometry x="55" y="112" width="120" height="40" as="geometry" />
        </mxCell>
        <mxCell id="q1jhY8t0Y62SEOMEheAa-78" value="" style="edgeStyle=orthogonalEdgeStyle;rounded=0;orthogonalLoop=1;jettySize=auto;html=1;strokeColor=#FF0000;" edge="1" parent="q1jhY8t0Y62SEOMEheAa-73" source="q1jhY8t0Y62SEOMEheAa-79" target="q1jhY8t0Y62SEOMEheAa-80">
          <mxGeometry relative="1" as="geometry" />
        </mxCell>
        <mxCell id="q1jhY8t0Y62SEOMEheAa-79" value="Chọn&quot; Quản lý tài khoản khách hàng&quot;" style="rounded=1;whiteSpace=wrap;html=1;arcSize=40;fontColor=#000000;fillColor=#ffffc0;strokeColor=#ff0000;" vertex="1" parent="q1jhY8t0Y62SEOMEheAa-73">
          <mxGeometry x="55" y="190" width="120" height="40" as="geometry" />
        </mxCell>
        <mxCell id="q1jhY8t0Y62SEOMEheAa-80" value="Chọn&quot;Khóa&quot;" style="rounded=1;whiteSpace=wrap;html=1;arcSize=40;fontColor=#000000;fillColor=#ffffc0;strokeColor=#ff0000;" vertex="1" parent="q1jhY8t0Y62SEOMEheAa-73">
          <mxGeometry x="55" y="280" width="120" height="40" as="geometry" />
        </mxCell>
        <mxCell id="q1jhY8t0Y62SEOMEheAa-81" value="" style="ellipse;html=1;shape=endState;fillColor=#000000;strokeColor=#ff0000;" vertex="1" parent="q1jhY8t0Y62SEOMEheAa-73">
          <mxGeometry x="100" y="395" width="30" height="30" as="geometry" />
        </mxCell>
        <mxCell id="q1jhY8t0Y62SEOMEheAa-82" value="Hệ thống" style="swimlane;whiteSpace=wrap" vertex="1" parent="1">
          <mxGeometry x="1751" y="1600" width="310" height="662" as="geometry" />
        </mxCell>
        <mxCell id="q1jhY8t0Y62SEOMEheAa-83" value="Khóa tài khoản được chọn" style="rounded=1;whiteSpace=wrap;html=1;arcSize=40;fontColor=#000000;fillColor=#ffffc0;strokeColor=#ff0000;" vertex="1" parent="q1jhY8t0Y62SEOMEheAa-82">
          <mxGeometry x="70" y="280" width="120" height="40" as="geometry" />
        </mxCell>
        <mxCell id="q1jhY8t0Y62SEOMEheAa-84" value="Trả về kết quả về database" style="rounded=1;whiteSpace=wrap;html=1;arcSize=40;fontColor=#000000;fillColor=#ffffc0;strokeColor=#ff0000;" vertex="1" parent="q1jhY8t0Y62SEOMEheAa-82">
          <mxGeometry x="70" y="390" width="120" height="40" as="geometry" />
        </mxCell>
        <mxCell id="q1jhY8t0Y62SEOMEheAa-85" value="" style="endArrow=classic;html=1;rounded=0;exitX=0.5;exitY=1;exitDx=0;exitDy=0;entryX=0.5;entryY=0;entryDx=0;entryDy=0;strokeColor=#FF0000;" edge="1" parent="q1jhY8t0Y62SEOMEheAa-82" source="q1jhY8t0Y62SEOMEheAa-83" target="q1jhY8t0Y62SEOMEheAa-84">
          <mxGeometry width="50" height="50" relative="1" as="geometry">
            <mxPoint x="-86" y="320" as="sourcePoint" />
            <mxPoint x="90" y="320" as="targetPoint" />
          </mxGeometry>
        </mxCell>
        <mxCell id="q1jhY8t0Y62SEOMEheAa-86" value="" style="endArrow=classic;html=1;rounded=0;exitX=1;exitY=0.5;exitDx=0;exitDy=0;entryX=0;entryY=0.5;entryDx=0;entryDy=0;strokeColor=#FF0000;" edge="1" parent="1" source="q1jhY8t0Y62SEOMEheAa-80" target="q1jhY8t0Y62SEOMEheAa-83">
          <mxGeometry width="50" height="50" relative="1" as="geometry">
            <mxPoint x="1771" y="2010" as="sourcePoint" />
            <mxPoint x="1791" y="1900" as="targetPoint" />
          </mxGeometry>
        </mxCell>
        <mxCell id="q1jhY8t0Y62SEOMEheAa-87" value="" style="endArrow=classic;html=1;rounded=0;exitX=0;exitY=0.5;exitDx=0;exitDy=0;entryX=1;entryY=0.5;entryDx=0;entryDy=0;strokeColor=#FF0000;" edge="1" parent="1" source="q1jhY8t0Y62SEOMEheAa-84" target="q1jhY8t0Y62SEOMEheAa-81">
          <mxGeometry width="50" height="50" relative="1" as="geometry">
            <mxPoint x="1660.5" y="1910" as="sourcePoint" />
            <mxPoint x="1836.5" y="1910" as="targetPoint" />
          </mxGeometry>
        </mxCell>
      </root>
    </mxGraphModel>
  </diagram>
</mxfile>
